<svg width="363" height="100" viewBox="0 0 363 100" fill="none" xmlns="http://www.w3.org/2000/svg">
<rect x="2" y="2" width="106" height="96" rx="3" fill="#323232" stroke="black" stroke-width="4"/>
<path d="M76.8333 61.3333H67.9V38.6667H76.8333C82.9906 38.6667 88 33.5825 88 27.3333C88 21.0841 82.9906 16 76.8333 16C70.676 16 65.6667 21.0841 65.6667 27.3333V36.4H43.3333V27.3333C43.3333 21.0841 38.324 16 32.1667 16C26.0094 16 21 21.0841 21 27.3333C21 33.5825 26.0094 38.6667 32.1667 38.6667H41.1V61.3333H32.1667C26.0094 61.3333 21 66.4175 21 72.6667C21 78.9159 26.0094 84 32.1667 84C38.324 84 43.3333 78.9159 43.3333 72.6667V63.6H65.6667V72.6667C65.6667 78.9159 70.676 84 76.8333 84C82.9906 84 88 78.9159 88 72.6667C88 66.4175 82.9906 61.3333 76.8333 61.3333ZM67.9 27.3333C67.9 22.3342 71.9077 18.2667 76.8333 18.2667C81.759 18.2667 85.7667 22.3342 85.7667 27.3333C85.7667 32.3325 81.759 36.4 76.8333 36.4H67.9V27.3333ZM32.1667 36.4C27.2411 36.4 23.2333 32.3325 23.2333 27.3333C23.2333 22.3342 27.2411 18.2667 32.1667 18.2667C37.0923 18.2667 41.1 22.3342 41.1 27.3333V36.4H32.1667ZM41.1 72.6667C41.1 77.6658 37.0923 81.7333 32.1667 81.7333C27.2411 81.7333 23.2333 77.6658 23.2333 72.6667C23.2333 67.6675 27.2411 63.6 32.1667 63.6H41.1V72.6667ZM43.3333 61.3333V38.6667H65.6667V61.3333H43.3333ZM76.8333 81.7333C71.9077 81.7333 67.9 77.6658 67.9 72.6667V63.6H76.8333C81.759 63.6 85.7667 67.6675 85.7667 72.6667C85.7667 77.6658 81.759 81.7333 76.8333 81.7333Z" fill="#8AE7B1"/>
<rect x="331" y="24" width="32" height="60" fill="#E0E0E0"/>
<path d="M205.743 26.641C206.675 26.641 207.428 26.9285 208.003 27.5036C208.578 28.0588 208.866 28.7528 208.866 29.5856C208.866 30.478 208.578 31.2116 208.003 31.7867C207.428 32.3617 206.675 32.6492 205.743 32.6492C204.85 32.6492 204.126 32.3617 203.571 31.7867C203.036 31.2116 202.768 30.478 202.768 29.5856C202.768 28.7528 203.046 28.0588 203.601 27.5036C204.156 26.9285 204.87 26.641 205.743 26.641ZM209.996 68.1928C209.996 72.7932 208.35 76.4021 205.058 79.0195C201.767 81.6568 197.008 83.4612 190.782 84.4328L190.157 81.5477C200.924 79.9812 206.308 75.6188 206.308 68.4605V43.9815H192.774V40.7692H209.996V68.1928ZM223.58 72L235.358 55.4923L225.127 40.7692H229.677L237.589 52.8749L245.679 40.7692H250.111L239.731 55.3138L251.479 72H246.691L237.441 58.08L227.952 72H223.58ZM283.088 65.8431C283.088 67.0725 283.296 67.9945 283.713 68.6092C284.129 69.2041 284.813 69.6403 285.765 69.9179L284.754 72.6246C283.485 72.4263 282.394 71.9703 281.482 71.2564C280.59 70.5227 279.965 69.4817 279.608 68.1333C278.518 69.5809 277.149 70.6913 275.504 71.4646C273.878 72.2181 272.034 72.5949 269.971 72.5949C267.929 72.5949 266.154 72.2082 264.647 71.4349C263.16 70.6417 262.02 69.5214 261.227 68.0738C260.434 66.6263 260.037 64.9309 260.037 62.9877C260.037 59.815 261.276 57.386 263.755 55.7005C266.234 54.015 269.823 53.1723 274.522 53.1723H279.251V50.1385C279.251 47.7986 278.577 46.1132 277.229 45.0821C275.9 44.0509 273.967 43.5354 271.429 43.5354C269.029 43.5354 266.362 44.0609 263.428 45.1118L262.357 42.078C264.161 41.4038 265.837 40.9279 267.384 40.6503C268.93 40.3528 270.457 40.2041 271.964 40.2041C274.363 40.2041 276.396 40.6106 278.062 41.4236C279.727 42.2366 280.976 43.3768 281.809 44.8441C282.662 46.3115 283.088 48.0366 283.088 50.0195V65.8431ZM270.685 69.6503C272.371 69.6503 273.957 69.2338 275.444 68.401C276.931 67.5682 278.2 66.4082 279.251 64.921V55.998H274.076C270.546 55.998 267.998 56.6127 266.432 57.8421C264.885 59.0715 264.112 60.8263 264.112 63.1067C264.112 65.2879 264.647 66.9238 265.718 68.0144C266.809 69.105 268.464 69.6503 270.685 69.6503ZM294.947 72L306.726 55.4923L296.494 40.7692H301.045L308.956 52.8749L317.047 40.7692H321.478L311.098 55.3138L322.847 72H318.058L308.808 58.08L299.319 72H294.947Z" fill="black"/>
<path d="M148.493 30.6564C150.714 30.8944 152.737 31.4496 154.561 32.3221C156.385 33.1945 157.932 34.2356 159.201 35.4451L156.584 38.1221C154.244 35.8417 151.547 34.4834 148.493 34.0472V48.5621C155.909 50.9415 159.617 55.0759 159.617 60.9651C159.617 62.8092 159.191 64.5344 158.338 66.1405C157.506 67.7467 156.256 69.105 154.591 70.2154C152.925 71.3258 150.893 72.0397 148.493 72.3569V80.9528H144.716V72.5354C142.178 72.3768 139.897 71.7819 137.875 70.7508C135.852 69.7197 134.088 68.4506 132.581 66.9436L135.109 64.2369C137.845 67.1716 141.048 68.7877 144.716 69.0851V51.4174C141.325 50.2872 138.718 48.8198 136.893 47.0154C135.069 45.1911 134.157 42.9603 134.157 40.3231C134.157 38.8359 134.544 37.3983 135.317 36.0103C136.09 34.6024 137.27 33.4127 138.856 32.441C140.463 31.4496 142.416 30.8448 144.716 30.6267V21.6738H148.493V30.6564ZM144.716 34.1959C142.852 34.5132 141.355 35.2072 140.225 36.2779C139.114 37.3289 138.559 38.7566 138.559 40.561C138.559 42.1077 139.005 43.4065 139.897 44.4574C140.81 45.5084 142.416 46.4899 144.716 47.4021V34.1959ZM148.493 68.8174C150.734 68.3614 152.41 67.4691 153.52 66.1405C154.65 64.812 155.215 63.0075 155.215 60.7272C155.215 58.8632 154.7 57.2968 153.669 56.0277C152.657 54.7388 150.932 53.6085 148.493 52.6369V68.8174Z" fill="black"/>
</svg>
